<?xml version="1.0" encoding="utf-8"?>
<!-- Generator: Adobe Illustrator 17.0.0, SVG Export Plug-In . SVG Version: 6.00 Build 0)  -->
<!DOCTYPE svg PUBLIC "-//W3C//DTD SVG 1.1//EN" "http://www.w3.org/Graphics/SVG/1.1/DTD/svg11.dtd">
<svg version="1.1" xmlns="http://www.w3.org/2000/svg" xmlns:xlink="http://www.w3.org/1999/xlink" x="0px" y="0px" width="163px"
	 height="164px" viewBox="0 0 163 164" enable-background="new 0 0 163 164" xml:space="preserve">
<g id="Forma_1_1_" enable-background="new    ">
	<g id="Forma_1">
		<g>
			<path fill-rule="evenodd" clip-rule="evenodd" fill="#121212" d="M119.927,106.435l-0.045-0.105l-6.237-14.525
				c-0.243-0.562-0.77-0.91-1.331-0.938l-11.219-0.547c-2.008-7.229-7.646-9.622-14.404-9.048c0,0,0.056-5.162,0.288-8.545
				c2.496-0.904,15.394-4.78,26.261,7.12c0.238,0.261,0.572,0.405,0.917,0.396c0.346-0.008,0.67-0.169,0.89-0.442
				c0.384-0.474,0.376-1.169-0.019-1.643c-2.533-3.041-12.238-12.991-27.628-8.473c0.03-2.218-0.052-4.027-0.318-5.055
				c-0.097-0.373-0.245-0.714-0.386-1.061l0.861-0.652l0.096-0.06c-0.002-0.003-0.004-0.006-0.006-0.009l8.961-6.801
				c0.532-0.404,0.718-1.137,0.449-1.764c-4.126-9.596-1.643-16.659,0.728-20.544c0.127-0.208,0.08-0.482-0.108-0.636
				c-0.188-0.154-0.458-0.14-0.626,0.034c-8.537,8.805-3.221,20.905-3.221,20.905l-8.925,6.504
				c-0.816-0.937-1.791-1.697-2.875-2.259c2.963-2.142,4.589-4.969,3.922-7.547c-0.526-2.032-2.639-4.536-5.426-6.288
				c-0.261-2.163-1.409-7.456-6.395-8.104c-0.258-0.034-0.507,0.108-0.614,0.35c-0.107,0.243-0.049,0.53,0.144,0.71
				c0.98,0.916,1.951,2.505,1.501,5.068c-1.394-0.189-2.581-0.155-3.691,0.129c-1.106,0.301-2.158,0.858-3.281,1.714
				c-1.634-2.013-1.557-3.879-1.145-5.162c0.081-0.253-0.007-0.533-0.218-0.691c-0.211-0.159-0.496-0.159-0.705-0.002
				c-4.034,3.033-2.472,8.215-1.653,10.231c-1.581,2.906-2.212,6.135-1.686,8.168c0.667,2.577,3.453,4.239,7.074,4.64
				c-0.674,1.026-1.155,2.171-1.413,3.392l-10.933-1.256c0,0-1.224-13.181-12.932-16.635c-0.231-0.069-0.473,0.052-0.562,0.279
				c-0.09,0.228,0.002,0.49,0.214,0.609c3.949,2.215,9.535,7.146,10.583,17.555c0.069,0.68,0.585,1.227,1.246,1.316l11.107,1.497
				c0,0.004-0.001,0.007-0.001,0.011l0.112,0.004l1.067,0.143c0.045,0.371,0.081,0.742,0.177,1.115
				c0.266,1.028,1.071,2.647,2.17,4.566C55.084,77.777,51.44,91.255,50.704,95.16c-0.115,0.609,0.214,1.219,0.779,1.442
				c0.324,0.129,0.685,0.108,0.99-0.056c0.306-0.164,0.527-0.455,0.608-0.8c3.713-15.754,16.838-18.756,19.453-19.201
				c1.84,2.835,4.389,7.309,4.389,7.309c-6.172,2.843-9.93,7.719-8.18,15.016l-9.518,6.027c-0.475,0.302-0.766,0.866-0.706,1.476
				l1.595,15.752l0.011,0.114c0.022,0.207,0.099,0.409,0.23,0.584l8.354,11.036c0.12,0.156,0.332,0.21,0.509,0.112
				c0.193-0.107,0.265-0.357,0.158-0.556l-6.276-11.881l-1.467-14.488l8.268-5.234c3.789,7.016,14.869,15.959,19.963,19.841
				c0.625,0.477,1.418,0.643,2.169,0.464l0,0.001c0.002-0.001,0.004-0.002,0.006-0.002c0.002,0,0.004-0.001,0.006-0.002l0-0.001
				c0.741-0.215,1.353-0.752,1.667-1.477c2.562-5.906,7.893-19.185,7.8-27.179l9.744,0.474l5.736,13.36l0.28,13.465
				c0.004,0.227,0.188,0.408,0.407,0.406c0.201-0.002,0.361-0.153,0.389-0.349l1.94-13.757
				C120.039,106.841,120.008,106.627,119.927,106.435z"/>
		</g>
	</g>
</g>
<g id="Rectangle_7_copy_9_1_" enable-background="new    ">
	<g id="Rectangle_7_copy_9">
		<g>
			<path fill-rule="evenodd" clip-rule="evenodd" fill="#BE2D00" d="M81.5,0.799c-44.774,0-81.2,36.425-81.2,81.199
				c0,44.774,36.426,81.2,81.2,81.2c44.774,0,81.2-36.426,81.2-81.2C162.7,37.224,126.274,0.799,81.5,0.799z M6.796,81.999
				c0-41.192,33.512-74.704,74.704-74.704c19.873,0,37.943,7.815,51.341,20.514L27.31,133.339
				C14.611,119.942,6.796,101.871,6.796,81.999z M81.5,156.702c-18.805,0-35.997-7-49.143-18.511L137.693,32.856
				c11.511,13.146,18.511,30.337,18.511,49.143C156.204,123.19,122.692,156.702,81.5,156.702z"/>
		</g>
	</g>
</g>
</svg>
