<?xml version="1.0" encoding="utf-8"?>
<!-- Generator: Adobe Illustrator 17.0.0, SVG Export Plug-In . SVG Version: 6.00 Build 0)  -->
<!DOCTYPE svg PUBLIC "-//W3C//DTD SVG 1.1//EN" "http://www.w3.org/Graphics/SVG/1.1/DTD/svg11.dtd">
<svg version="1.1" xmlns="http://www.w3.org/2000/svg" xmlns:xlink="http://www.w3.org/1999/xlink" x="0px" y="0px" width="163px"
	 height="164px" viewBox="0 0 163 164" enable-background="new 0 0 163 164" xml:space="preserve">
<g id="Forma_1_1_" enable-background="new    ">
	<g id="Forma_1">
		<g>
			<path fill-rule="evenodd" clip-rule="evenodd" fill="#2F2F2F" d="M121.617,105.638c-0.78-0.671-1.733-0.604-2.392-0.43
				c-0.487,0.13-0.879,0.333-1.07,0.47c-0.068,0.049-0.257,0.136-0.564,0.217c-0.521,0.138-0.961,0.152-1.067,0.109
				c-0.419-0.165-1.745-0.29-2.363-0.126c-0.092,0.024-0.169,0.057-0.236,0.094c-0.019,0.01-0.094,0.05-0.287,0.101
				c-0.638,0.169-1.488,0.202-1.751,0.065c-0.308-0.156-1.131-0.181-2.935-0.201c-0.815-0.009-1.91-0.022-2.233-0.082
				c-2.04-3.135-3.147-5.833-4.124-8.215c-0.742-1.807-1.382-3.37-2.282-4.763c-0.062-0.095-0.06-0.155-0.056-0.27
				c0.027-0.746-0.164-1.106-5.186-2.366c-0.34-1.776-1.253-5.826-1.778-7.764c-0.49-1.812-1.644-4.568-1.987-5.375
				c1.908-1.79,3.941-3.35,4.935-4.112c0.152-0.117,0.281-0.215,0.382-0.295c0.233,0.14,0.66,0.557,0.664,0.904
				c0.017,1.662,1.422,7.516,2.256,10.856c0.138,0.554,0.372,0.931,0.696,1.121c0.448,0.26,1.041,0.049,1.264-0.385
				c1.198,0.307,2.383,0.188,3.646-0.404c0.572-0.268,0.899-0.436,0.927-0.763c0.777-0.221,1.547-0.725,1.966-0.997
				c0.056-0.036,0.086-0.046,0.102-0.051c0.012,0.001,0.05,0.017,0.077,0.028c0.18,0.077,0.554,0.181,1.055-0.126
				c0.331-0.203,0.612-0.326,0.817-0.413c0.265-0.116,0.515-0.226,0.493-0.515c-0.023-0.291-0.312-0.368-0.487-0.413
				c-0.11-0.028-0.22-0.037-0.324-0.034c0.419-0.333,1.417-0.61,2.267-0.468c0.081,0.013,0.129,0.034,0.143,0.04
				c0.081,0.04,0.187,0.059,0.272,0.037c0,0,0.001,0,0.002,0c0.142-0.038,0.245-0.16,0.259-0.305
				c0.012-0.135-0.071-0.273-0.19-0.344c-0.029-0.02-0.228-0.153-0.637-0.583c-0.383-0.402-0.7-0.514-1.131-0.399l-0.305,0.087
				c-0.074,0.02-0.159,0.039-0.257,0.053c-1.226,0.158-1.442,0.526-1.898,1.182c-0.045,0.065-0.092,0.134-0.143,0.206
				c-0.71,0.029-1.624,0.518-2.57,1.053c-1.214,0.685-2.552,1.352-3.475,1.16c-0.517-1.442-1.72-5.85-2.345-9.748
				c-0.179-1.118-1.358-1.958-2.305-2.633c-0.202-0.143-0.393-0.279-0.556-0.407c-0.222-0.171-0.536-0.2-0.957-0.088
				c-0.979,0.26-2.573,1.285-3.979,2.19c-0.797,0.513-1.619,1.041-2.086,1.256c-0.149-0.258-0.272-0.496-0.385-0.713
				c-0.42-0.813-0.757-1.466-1.826-1.862c0.057-0.657-0.065-1.075-0.272-1.669l-0.737-1.531c1.928-2.878,3-4.843,1.936-7.397
				c-0.954-2.275-5.531-7.469-7.11-9.18c0.435-0.42,0.791-0.732,1.063-0.968c0.492-0.43,0.715-0.624,0.653-0.896
				c2.53-2.213,2.469-2.354,2.342-2.653c-0.006-0.012-0.012-0.023-0.017-0.034c2.412-2.545,2.504-2.711,2.395-2.994
				c1.974-2.446,2.182-2.718,2.075-2.946c0.738-1.094,1.401-1.841,1.811-2.303c0.437-0.493,0.632-0.712,0.512-0.977
				c0.878-1.112,1.444-1.754,1.794-2.151c0.431-0.488,0.561-0.636,0.459-0.891c-0.005-0.012-0.01-0.023-0.016-0.036
				c0.989-1.499,1.681-2.201,2.022-2.547c0.2-0.202,0.345-0.349,0.34-0.533c1.74-1.279,1.881-1.537,1.82-1.8
				c0.47-0.512,1.15-1.122,1.743-1.448c0.612-0.336,0.854-0.669,0.722-0.993c-0.042-0.101-0.241-0.436-0.874-0.211
				c-0.539,0.185-1.011,0.488-2.261,1.714c-0.064-0.01-0.131-0.007-0.198,0.01c-0.438,0.117-1.255,1.072-1.785,1.794
				c-0.056-0.008-0.111-0.007-0.157,0.005c-0.396,0.105-0.871,0.926-1.057,1.272c-0.093,0.175-0.175,0.336-0.253,0.49
				c-0.245,0.487-0.445,0.882-0.957,1.521c-0.042-0.002-0.081,0.001-0.115,0.009c-0.377,0.1-0.766,0.806-0.88,1.142
				c-0.002,0.007-0.261,0.732-1.286,1.888c-0.514-0.097-0.82,0.695-0.895,1.063c-0.076,0.377-0.244,0.609-0.575,1.068
				c-0.202,0.282-0.466,0.647-0.792,1.166c-0.404,0.025-0.667,0.678-0.731,0.992c-0.057,0.269-0.472,0.799-0.95,1.414
				c-0.123,0.156-0.253,0.324-0.39,0.502c-0.082-0.021-0.17-0.026-0.233-0.009c-0.393,0.103-0.701,0.771-0.788,1.077
				c-0.132,0.458-0.44,0.832-1.267,1.833l-0.118,0.143c-0.312-0.092-0.689,0.172-0.842,0.623c-0.11,0.317-0.715,1.145-1.424,1.958
				c-0.09-0.04-0.195-0.047-0.296-0.021c-0.397,0.106-0.792,0.827-0.942,1.131c-0.059,0.119-0.172,0.276-0.307,0.45
				c-0.293-2.016-0.303-5.189-0.18-6.373c0.145-0.366,0.396-0.746,0.6-1.055c0.153-0.231,0.275-0.415,0.341-0.571
				c0.166-0.398,0.258-0.663,0.111-0.866c0.123-0.166,0.231-0.299,0.316-0.404c0.211-0.257,0.377-0.461,0.231-0.713
				c-0.043-0.076-0.102-0.125-0.167-0.156c0.06-0.296,0.069-0.637-0.057-0.976c-0.297-0.783-1.161-1.362-1.198-1.386
				c-0.139-0.093-0.325-0.075-0.445,0.042c-0.12,0.118-0.138,0.302-0.047,0.442c0.004,0.007,0.283,0.438,0.324,1.102
				c-0.061-0.011-0.127-0.008-0.194,0.01c-0.336,0.089-0.44,0.428-0.494,1.23c-0.062-0.012-0.125-0.01-0.192,0.008
				c-0.333,0.088-0.356,0.426-0.384,0.852c-0.009,0.123-0.019,0.266-0.034,0.427c-0.056,0.568-0.162,0.75-0.257,0.911
				c-0.15,0.258-0.246,0.471-0.194,1.044c-0.363,1.938,0.161,5.729,0.634,7.7c0.004,0.02,0.012,0.037,0.019,0.056
				c0,0.024,0.001,0.048,0.004,0.073c-0.07-0.017-0.147-0.014-0.223,0.007c-0.359,0.094-0.844,0.709-1.126,1.101
				c-0.18,0.25-0.523,0.726-1.047,1.172c-0.082-0.027-0.175-0.035-0.247-0.015c-0.281,0.075-0.642,0.448-2.033,2.14
				c-0.063-0.012-0.128-0.012-0.18,0.002c-0.426,0.113-0.881,1.053-0.967,1.241c-0.314,0.68-0.71,0.938-1.154,1.102
				c-0.524,0.093-0.999,0.067-1.615-0.367c-0.17-0.121-1.038-0.711-1.467-0.596c-0.052,0.013-0.109,0.046-0.158,0.087
				c-2.028-0.769-2.555-0.923-2.838-0.848c-0.072,0.019-0.15,0.072-0.207,0.136c-0.683-0.128-1.224-0.375-1.534-0.517
				c-0.495-0.223-1.155-0.469-1.493-0.378c-0.075,0.02-0.141,0.054-0.193,0.103c-0.044-0.092-0.093-0.174-0.149-0.248
				c-0.627-2.007-2.039-5.392-3.293-6.843c-0.245-0.52-0.437-0.659-0.696-0.807c-0.163-0.093-0.347-0.197-0.681-0.662
				c-0.093-0.129-0.173-0.246-0.24-0.346c-0.253-0.374-0.436-0.644-0.77-0.555c-0.066,0.018-0.122,0.049-0.171,0.088
				c-0.454-0.666-0.714-0.909-1.048-0.821c-0.068,0.019-0.124,0.049-0.172,0.087c-0.299-0.596-0.276-1.107-0.275-1.113
				c0.01-0.166-0.099-0.318-0.262-0.361c-0.164-0.044-0.335,0.032-0.41,0.183c-0.02,0.039-0.479,0.968-0.339,1.797
				c0.062,0.353,0.241,0.643,0.443,0.868c-0.042,0.06-0.068,0.132-0.067,0.22c0.001,0.291,0.249,0.386,0.562,0.505
				c0.126,0.047,0.288,0.109,0.478,0.193c-0.025,0.249,0.189,0.431,0.534,0.694c0.135,0.102,0.334,0.202,0.585,0.327
				c0.331,0.167,0.74,0.371,1.05,0.616c0.69,0.939,2.26,3.648,3.041,5.563c-0.172-0.072-0.32-0.141-0.418-0.206
				c-0.285-0.189-0.991-0.619-1.387-0.514c-0.102,0.026-0.188,0.086-0.247,0.165c-1.023-0.352-1.966-0.769-2.221-0.991
				c-0.362-0.315-0.823-0.357-1.044-0.123l-0.202-0.076c-1.205-0.452-1.655-0.622-1.996-0.951c-0.273-0.263-0.847-0.644-1.226-0.544
				c-0.082,0.022-0.152,0.063-0.207,0.121c-0.209-0.087-0.408-0.168-0.594-0.243c-0.719-0.294-1.341-0.546-1.523-0.751
				c-0.215-0.239-0.769-0.683-1.138-0.496c-0.541-0.286-0.951-0.472-1.266-0.615c-0.522-0.238-0.784-0.357-1.044-0.646
				c-0.219-0.246-0.782-0.665-1.154-0.566c-0.053,0.013-0.111,0.048-0.16,0.09c-1.482-0.498-2.058-0.994-2.064-1
				c-0.27-0.235-0.962-0.654-1.342-0.553c-0.033,0.009-0.069,0.026-0.104,0.048c-0.757-0.299-1.141-0.549-1.579-0.833
				c-0.151-0.098-0.309-0.201-0.485-0.309c-0.337-0.209-1.161-0.684-1.555-0.58c-0.045,0.012-0.094,0.038-0.139,0.073
				c-0.825-0.363-2.016-0.786-2.453-0.67c-0.068,0.019-0.128,0.049-0.178,0.089c-1.7-0.443-2.261-0.472-2.819-0.368
				c-0.686,0.127-0.668,0.508-0.652,0.617c0.049,0.346,0.428,0.515,1.124,0.503c0.673-0.01,1.572,0.181,2.242,0.39
				c0.078,0.259,0.329,0.414,2.487,0.661c0.089,0.162,0.288,0.217,0.563,0.293c0.472,0.133,1.422,0.398,3.035,1.207
				c0.001,0.013,0.002,0.025,0.004,0.039c0.041,0.272,0.229,0.335,0.849,0.546c0.504,0.17,1.319,0.446,2.641,0.975
				c0.031,0.288,0.308,0.381,0.934,0.59c0.589,0.197,1.54,0.515,2.734,1.099c0.022,0.253,0.333,0.383,3.283,1.527
				c0.049,0.299,0.214,0.396,3.587,1.41c0.001,0.011,0.002,0.024,0.003,0.037c0.041,0.321,0.059,0.473,3.367,1.138
				c0.084,0.266,0.375,0.324,1.019,0.453c0.355,0.072,0.821,0.165,1.407,0.313c-0.503,2.265-1.848,9.031-1.523,11.468
				c0.364,2.737,2.285,3.91,5.409,5.451l0.137,1.735c0.12,0.581,0.227,0.999,0.607,1.536c-0.725,0.869-0.688,1.599-0.642,2.504
				c0.012,0.249,0.026,0.52,0.026,0.822c-0.499,0.043-1.486-0.008-2.444-0.058c-1.674-0.088-3.571-0.187-4.548,0.071
				c-0.423,0.112-0.679,0.292-0.784,0.55c-0.077,0.189-0.173,0.397-0.274,0.62c-0.482,1.056-1.081,2.371-0.673,3.43
				c1.426,3.677,2.603,8.061,2.889,9.581c-0.298,0.219-0.667,0.387-1.118,0.506c-0.852,0.226-1.84,0.245-2.794,0.264
				c-1.085,0.021-2.113,0.061-2.745,0.366c-0.08-0.041-0.155-0.079-0.225-0.116c-0.708-0.367-1.092-0.591-2.239-0.164
				c-0.164,0.06-0.299,0.086-0.416,0.107c-0.542,0.102-0.793,0.315-0.954,0.906c-0.154,0.563-0.267,0.772-0.286,0.806
				c-0.07,0.121-0.08,0.287-0.002,0.401c0.085,0.122,0.239,0.179,0.385,0.14l0.001-0.001c0.079-0.021,0.16-0.086,0.211-0.157
				c0.009-0.011,0.041-0.05,0.107-0.1c0.683-0.522,1.695-0.738,2.22-0.638c-0.092,0.046-0.185,0.103-0.27,0.181
				c-0.132,0.122-0.353,0.326-0.234,0.594c0.117,0.265,0.388,0.244,0.676,0.224c0.224-0.016,0.529-0.039,0.92-0.012
				c0.581,0.037,0.872-0.228,0.994-0.377c0.018-0.024,0.044-0.055,0.056-0.061c0.011-0.003,0.043-0.009,0.113-0.003
				c0.545,0.05,1.43,0.132,2.209-0.03c0.178,0.272,0.545,0.271,1.178,0.244l0.085-0.004c0.367-0.016,0.826-0.036,1.347-0.173
				c0.858-0.229,1.622-0.709,2.323-1.466c0.41,0.255,1.019,0.142,1.272-0.299c0.185-0.325,0.199-0.768,0.039-1.317
				c-0.963-3.306-2.701-9.07-3.524-10.517c-0.175-0.313,0-0.911,0.106-1.117c0.126,0.018,0.289,0.041,0.482,0.067
				c1.245,0.17,3.795,0.514,6.365,1.122c0.108,0.871,0.495,3.83,0.985,5.641c0.549,2.029,1.818,5.992,2.384,7.603
				c-3.715,3.576-3.7,3.982-3.3,4.614c0.062,0.1,0.093,0.15,0.088,0.264c-0.075,1.663,0.152,3.224,0.415,5.032
				c0.375,2.576,0.799,5.494,0.501,9.62c-0.162,0.628-1.461,1.461-2.32,2.011c-0.68,0.435-1.042,0.674-1.189,0.902
				c-0.16,0.251-0.916,0.648-1.557,0.818c-0.187,0.051-0.271,0.053-0.295,0.053c-0.074,0-0.154,0.011-0.242,0.035
				c-0.61,0.161-1.714,0.944-1.985,1.288c-0.071,0.092-0.469,0.3-1.003,0.443c-0.295,0.078-0.492,0.097-0.572,0.089
				c-0.245-0.026-0.694,0.004-1.144,0.122c-0.667,0.177-1.531,0.592-1.862,1.564c-0.607,1.758-0.584,1.88-0.402,2.073
				c0.089,0.096,0.249,0.138,0.375,0.105c0.211-0.057,0.345-0.245,0.872-1.041c0.123-0.185,0.259-0.389,0.403-0.599
				c0.032-0.046,0.057-0.056,0.079-0.061c0.088-0.024,0.246,0.004,0.398,0.033c0.04,0.007,0.08,0.013,0.122,0.021
				c-0.112,0.152-0.181,0.305-0.069,0.487c0.139,0.224,0.384,0.177,0.515,0.15c0.095-0.019,0.242-0.049,0.442-0.059
				c0.18-0.01,0.364-0.039,0.546-0.088c0.884-0.234,1.635-0.863,2.008-1.68c0.038-0.085,0.057-0.091,0.086-0.098
				c0.066-0.018,0.178-0.021,0.308-0.025c0.083-0.003,0.174-0.005,0.273-0.012c0.614-0.041,1.583-0.528,2.322-1.17
				c0.302-0.261,0.663-0.449,1.071-0.557c0.245-0.065,0.465-0.091,0.629-0.106c0.593-0.057,0.818-0.266,1.502-0.94l0.252-0.249
				c0.604-0.597,1.289-1.274,2.078-1.763c0.073-0.045,0.153-0.086,0.233-0.126c0.71-0.363,1.323-0.835,1.051-2.612
				c-0.516-3.34-1.381-10.604-1.299-12.799c0.395-0.4,0.663-0.732,0.923-1.052c0.232-0.286,0.454-0.56,0.757-0.875
				c6.642,20.461,8.492,22.791,11.827,26.989c3.024,3.807,5.93,5.575,8.182,4.977c0.832-0.22,1.547-0.76,2.128-1.607
				c0.93,0.446,1.821,0.561,2.653,0.341c2.247-0.595,3.871-3.565,4.571-8.359c0.771-5.287,1.199-8.218-3.381-29.229
				c0.421,0.124,0.752,0.249,1.096,0.382c0.389,0.15,0.79,0.306,1.336,0.456c1.156,1.832,4.32,8.836,5.645,12.197
				c0.581,1.465,1.526,1.401,2.183,1.226c0.099-0.026,0.197-0.056,0.291-0.085c0.195-0.059,0.378-0.11,0.465-0.107
				c0.321,0.011,0.613,0.009,0.891,0.008c0.658-0.004,1.224-0.008,1.853,0.156c0.966,0.246,1.247,0.303,1.773,0.061
				c0.151-0.068,0.358-0.153,0.605-0.219c0.408-0.108,0.813-0.126,1.206-0.05c0.958,0.184,2.036,0.131,2.603-0.147
				c0.086-0.043,0.164-0.086,0.236-0.122c0.117-0.063,0.218-0.12,0.284-0.137c0.029-0.008,0.048-0.012,0.125,0.042
				c0.731,0.518,1.695,0.687,2.578,0.453c0.185-0.049,0.362-0.116,0.526-0.198c0.177-0.091,0.319-0.138,0.411-0.169
				c0.127-0.042,0.363-0.122,0.369-0.387c0.004-0.211-0.134-0.309-0.308-0.385c0.034-0.026,0.065-0.053,0.095-0.081
				c0.12-0.106,0.241-0.209,0.329-0.232c0.022-0.006,0.048-0.009,0.098,0.013c0.228,0.11,0.446,0.218,0.647,0.315
				c0.866,0.426,1.079,0.524,1.292,0.468c0.127-0.033,0.243-0.151,0.271-0.275C123.075,106.977,123.028,106.85,121.617,105.638z
				 M69.183,60.292c0.008,0.161,0.02,0.38-0.263,0.948c-0.551,1.102-0.728,1.599-0.109,3.045c-0.787,0.545-2.926,2.293-3.567,5.564
				c-0.178-0.122-0.342-0.239-0.496-0.347c-0.962-0.683-1.596-1.132-2.698-1.055c-0.067,0.006-0.176,0.013-0.231,0.028
				c-0.021,0.005-0.035,0.012-0.034,0.021c-0.072-0.146,0.001-0.86,0.102-1.85l0.025-0.249c0.282-2.809,0.687-4.9,0.983-6.426
				c0.186-0.968,0.338-1.746,0.392-2.377c0.197,0.061,0.487,0.108,0.912,0.176c0.469,0.075,1.081,0.172,1.825,0.327
				c0.002,0.006,0.002,0.011,0.004,0.016c0.063,0.298,0.347,0.322,0.705,0.353c0.412,0.035,1.12,0.096,1.869,0.414
				c0.028,0.109,0.112,0.209,0.213,0.257c0.205,0.1,0.44,0.273,0.651,0.447C69.214,59.827,69.168,60.012,69.183,60.292z
				 M84.915,64.155c-0.078,0.172-0.162,0.354-0.255,0.548c-2.203-2.52-4.94-2.974-5.899-3.056c-0.19-1.559-0.596-1.904-1.659-2.605
				c-0.502-0.331-0.604-0.527-0.678-0.67c-0.128-0.249-0.261-0.386-0.601-0.471c0.096-0.258,0.211-0.522,0.34-0.711
				c0.062-0.092,0.086-0.221,0.054-0.328c0.485-0.647,1.07-1.05,1.411-1.285c0.295-0.203,0.529-0.364,0.432-0.656
				c0-0.005-0.002-0.009-0.004-0.014c0.566-0.502,1.048-0.89,1.417-1.188c0.334-0.268,0.562-0.452,0.701-0.603
				c0.359,0.512,0.873,1.103,1.549,1.878c1.024,1.174,2.426,2.783,4.083,5.069l0.148,0.204c0.586,0.808,1.008,1.392,1.044,1.491
				c-0.034,0.035-0.188,0.11-0.273,0.15C85.731,62.384,85.407,63.088,84.915,64.155z"/>
		</g>
	</g>
</g>
<g id="Rectangle_7_copy_8_1_" enable-background="new    ">
	<g id="Rectangle_7_copy_8">
		<g>
			<path fill-rule="evenodd" clip-rule="evenodd" fill="#BE2D00" d="M81.5,0.799c-44.774,0-81.2,36.425-81.2,81.199
				c0,44.774,36.426,81.2,81.2,81.2c44.774,0,81.2-36.426,81.2-81.2C162.7,37.224,126.274,0.799,81.5,0.799z M6.796,81.999
				c0-41.192,33.512-74.704,74.704-74.704c19.873,0,37.943,7.815,51.34,20.514L27.31,133.339
				C14.611,119.942,6.796,101.871,6.796,81.999z M81.5,156.702c-18.805,0-35.997-7-49.143-18.511L137.693,32.856
				c11.511,13.146,18.511,30.337,18.511,49.143C156.204,123.19,122.692,156.702,81.5,156.702z"/>
		</g>
	</g>
</g>
</svg>
