<svg xmlns="http://www.w3.org/2000/svg" width="40" height="44" viewBox="0 0 40 44"><g><g><path fill="#fff" d="M40.003 38.146v5.85H-.007v-5.852c0-2.763 2.39-6.164 5.31-7.544l6.495-3.077 4.51 9.366 2.308-6.238c.456.085.907.2 1.382.2.474 0 .925-.115 1.38-.2l2.192 5.932 4.42-9.163 6.706 3.177c2.917 1.382 5.307 4.783 5.307 7.549zM5.894 17.64v-4.225c0-.717.375-1.345.94-1.706C7.59 5.133 13.204.008 20 .008S32.41 5.133 33.17 11.709c.563.361.937.989.937 1.706v4.225a2.036 2.036 0 0 1-2.04 2.032c-1.127 0-2.039-.91-2.039-2.032v-.888c-1.103 5.532-5.166 10.668-10.027 10.668-4.862 0-8.925-5.136-10.029-10.668v.888c0 .91-.606 1.672-1.435 1.93a11.868 11.868 0 0 0 5.098 6.693c.46-.152 1.038-.122 1.6.167.903.47 1.364 1.378 1.022 2.028-.34.65-1.348.796-2.256.327-.662-.345-1.082-.924-1.126-1.465a13.175 13.175 0 0 1-5.701-7.798 2.03 2.03 0 0 1-1.28-1.882zm2.329-6.406c.061.005.12.006.178.028.148.055.255.16.329.283.443.188.795.53 1.011.953.602-5.618 4.958-8.59 10.257-8.59 5.3 0 9.656 2.972 10.257 8.59A2.02 2.02 0 0 1 31.8 11.41C30.92 5.7 25.97 1.307 19.998 1.307c-5.91.001-10.82 4.303-11.775 9.927z"/></g></g></svg>