<svg xmlns="http://www.w3.org/2000/svg" width="21" height="21" viewBox="0 0 21 21"><g><g><path fill="#898989" d="M20.403 18.882c-.617.768-1.461 1.82-3.82 2.098-.04.004-.191.02-.441.02-1.203 0-5.52-.395-10.577-5.473C1.038 10.978-.53 7.757.152 4.409.64 2.018 1.948.858 2.208.647 2.64.23 3.201 0 3.794 0c.585 0 1.13.225 1.537.635l3.035 3.048c.857.86.839 2.28-.04 3.165L7.143 8.035c.513.927 1.215 2.15 2.48 3.421 1.267 1.273 2.487 1.977 3.405 2.49l1.182-1.186a2.264 2.264 0 0 1 1.613-.676c.584 0 1.13.224 1.537.632l3.035 3.05c.804.81.807 2.12.008 3.116zm-.93-2.191l-3.033-3.049a.865.865 0 0 0-.617-.249.972.972 0 0 0-.692.292l-1.255 1.26a1.04 1.04 0 0 1-.791.366c-.258 0-.464-.094-.564-.15-.997-.556-2.364-1.318-3.82-2.78-1.46-1.467-2.219-2.842-2.772-3.846-.192-.34-.233-.861.115-1.247l.022-.023 1.337-1.342c.372-.374.39-.964.041-1.314L4.41 1.559a.857.857 0 0 0-.615-.25.976.976 0 0 0-.694.293l-.034.034-.04.03c-.043.033-1.172.92-1.597 3.006-.582 2.857.883 5.734 5.057 9.93 4.703 4.722 8.58 5.089 9.656 5.089.189 0 .289-.011.29-.011 1.83-.216 2.377-.898 2.956-1.62.311-.387.47-.981.085-1.37zM18.53 8.93a.653.653 0 0 1-.718-.58c-.122-1.137-.802-2.475-1.731-3.408-.921-.924-2.24-1.606-3.359-1.735a.654.654 0 0 1 .15-1.3c1.414.163 2.997.971 4.13 2.11 1.144 1.148 1.95 2.755 2.106 4.192a.654.654 0 0 1-.578.72zm-6.268-4.282c1.034.12 2.134.813 2.765 1.448.637.64 1.331 1.755 1.444 2.805a.654.654 0 0 1-.648.725.653.653 0 0 1-.647-.584c-.066-.615-.516-1.465-1.07-2.02-.549-.552-1.387-1.003-1.993-1.073a.654.654 0 0 1 .15-1.301z"/></g></g></svg>