<?xml version="1.0" encoding="utf-8"?>
<!-- Generator: Adobe Illustrator 17.0.0, SVG Export Plug-In . SVG Version: 6.00 Build 0)  -->
<!DOCTYPE svg PUBLIC "-//W3C//DTD SVG 1.1//EN" "http://www.w3.org/Graphics/SVG/1.1/DTD/svg11.dtd">
<svg version="1.1" id="Shape_5_1_" xmlns="http://www.w3.org/2000/svg" xmlns:xlink="http://www.w3.org/1999/xlink" x="0px" y="0px"
	 width="21px" height="21px" viewBox="0 0 21 21" enable-background="new 0 0 21 21" xml:space="preserve">
<g id="Shape_5">
	<g>
		<path fill-rule="evenodd" clip-rule="evenodd" fill="#898989" d="M12.722,3.206c1.12,0.13,2.438,0.81,3.358,1.735
			c0.929,0.933,1.609,2.271,1.732,3.407c0.036,0.336,0.319,0.584,0.647,0.584c0.023,0,0.047-0.001,0.071-0.003
			c0.358-0.04,0.616-0.362,0.577-0.722c-0.155-1.437-0.962-3.043-2.106-4.191c-1.133-1.139-2.716-1.946-4.131-2.11
			c-0.357-0.042-0.681,0.216-0.722,0.575C12.108,2.84,12.365,3.165,12.722,3.206z M20.395,15.765l-3.035-3.05
			c-0.408-0.408-0.953-0.632-1.537-0.632c-0.607,0-1.18,0.24-1.613,0.676l-1.181,1.186c-0.918-0.513-2.138-1.218-3.405-2.49
			c-1.265-1.272-1.967-2.494-2.48-3.421l1.183-1.187c0.879-0.885,0.897-2.305,0.04-3.165L5.331,0.634
			c-0.406-0.41-0.952-0.635-1.537-0.635c-0.594,0-1.155,0.23-1.586,0.648C1.948,0.857,0.64,2.017,0.152,4.409
			c-0.682,3.347,0.886,6.568,5.412,11.117c5.057,5.078,9.374,5.473,10.577,5.473c0.25,0,0.401-0.015,0.442-0.02
			c2.358-0.278,3.203-1.33,3.819-2.098C21.202,17.885,21.199,16.575,20.395,15.765z M19.388,18.059
			c-0.58,0.722-1.127,1.404-2.956,1.619c-0.001,0-0.101,0.011-0.29,0.011c-1.076,0-4.953-0.367-9.655-5.089
			c-4.175-4.195-5.64-7.072-5.057-9.93c0.425-2.085,1.554-2.973,1.598-3.006l0.039-0.029L3.1,1.601
			c0.188-0.189,0.435-0.293,0.694-0.293c0.236,0,0.454,0.089,0.615,0.251l3.035,3.049c0.349,0.35,0.331,0.94-0.041,1.314
			L6.066,7.265L6.044,7.288C5.695,7.673,5.737,8.194,5.928,8.534c0.554,1.004,1.313,2.38,2.773,3.847
			c1.455,1.462,2.823,2.224,3.82,2.779c0.1,0.056,0.306,0.151,0.564,0.151c0.305,0,0.584-0.13,0.791-0.365l1.255-1.26
			c0.187-0.188,0.433-0.292,0.692-0.292c0.237,0,0.456,0.089,0.616,0.249l3.033,3.049C19.858,17.078,19.699,17.672,19.388,18.059z
			 M12.113,5.948c0.606,0.07,1.443,0.521,1.992,1.073c0.554,0.556,1.004,1.406,1.07,2.021c0.036,0.336,0.318,0.584,0.647,0.584
			c0.023,0,0.047-0.002,0.071-0.004C16.252,9.583,16.51,9.26,16.471,8.9c-0.113-1.05-0.807-2.165-1.444-2.805
			c-0.631-0.635-1.731-1.329-2.765-1.448c-0.358-0.041-0.681,0.216-0.722,0.576C11.5,5.582,11.756,5.907,12.113,5.948z"/>
	</g>
</g>
</svg>
