<?xml version="1.0" encoding="utf-8"?>
<!-- Generator: Adobe Illustrator 17.0.0, SVG Export Plug-In . SVG Version: 6.00 Build 0)  -->
<!DOCTYPE svg PUBLIC "-//W3C//DTD SVG 1.1//EN" "http://www.w3.org/Graphics/SVG/1.1/DTD/svg11.dtd">
<svg version="1.1" xmlns="http://www.w3.org/2000/svg" xmlns:xlink="http://www.w3.org/1999/xlink" x="0px" y="0px" width="163px"
	 height="164px" viewBox="0 0 163 164" enable-background="new 0 0 163 164" xml:space="preserve">
<g id="Forma_1_1_" enable-background="new    ">
	<g id="Forma_1">
		<g>
			<path fill-rule="evenodd" clip-rule="evenodd" fill="#121212" d="M136.504,68.757c-1.678-3.703-3.874-7.536-12.013-7.666
				c-0.258-3.317-4.003-6.77-7.878-7.025c-3.875-0.253-7.624,0.13-5.297,2.81c2.326,2.682,3.1,5.24,1.938,4.859
				c-1.166-0.388-5.814-3.069-19.765-0.896c-1.808,0.507-9.299-5.497-19.506-5.624c-10.203-0.129-17.695,2.75-28.417,31.334
				c-1.032,2.526-8.267,8.403-12.143,11.211c-3.873,2.816-5.42,5.962-5.423,11.587c-0.008,7.87,11.364,11.783,35.778,11.654
				c24.414-0.127,37.332-4.069,37.332-4.069c-27.514,2.935-69.633,4.56-69.633-8.1c0-8.946,12.41-12.34,15.898-12.216
				c3.487,0.13,5.943,5.494,14.595,2.429c1.423-0.128,0.648,1.917-0.517,3.194c-1.162,1.275-0.257,2.812,4.264,2.812
				c4.52,0,18.046,0.128,20.905,0c2.862-0.129,5.188-5.111-4.112-5.496c-8.128,0.135,5.269-2.502,6.974-9.455
				c0.311-1.701,3.874-1.794,6.975-1.785c9.104,0.012,15.111,16.554,17.051,16.617c1.935,0.065,7.878,0.703,7.749-1.853
				c-0.128-2.556-5.035-1.405-6.071-2.811c-1.034-1.402-4.392-6.72-3.228-9.147c1.161-2.422,5.554-9.201,10.72-9.963
				c5.166-0.771,18.602,3.19,20.797,0C145.676,77.962,140.507,76.168,136.504,68.757z"/>
		</g>
	</g>
</g>
<g id="Rectangle_7_copy_7_1_" enable-background="new    ">
	<g id="Rectangle_7_copy_7">
		<g>
			<path fill-rule="evenodd" clip-rule="evenodd" fill="#BE2D00" d="M81.5,0.799c-44.774,0-81.2,36.425-81.2,81.199
				c0,44.774,36.426,81.2,81.2,81.2s81.2-36.426,81.2-81.2C162.7,37.224,126.274,0.799,81.5,0.799z M6.796,81.999
				c0-41.192,33.512-74.704,74.704-74.704c19.873,0,37.943,7.815,51.34,20.514L27.31,133.339
				C14.611,119.942,6.796,101.871,6.796,81.999z M81.5,156.702c-18.805,0-35.997-7-49.143-18.511L137.693,32.856
				c11.511,13.146,18.511,30.337,18.511,49.143C156.204,123.19,122.692,156.702,81.5,156.702z"/>
		</g>
	</g>
</g>
</svg>
