<?xml version="1.0" encoding="utf-8"?>
<!-- Generator: Adobe Illustrator 17.0.0, SVG Export Plug-In . SVG Version: 6.00 Build 0)  -->
<!DOCTYPE svg PUBLIC "-//W3C//DTD SVG 1.1//EN" "http://www.w3.org/Graphics/SVG/1.1/DTD/svg11.dtd">
<svg version="1.1" id="Shape_4_1_" xmlns="http://www.w3.org/2000/svg" xmlns:xlink="http://www.w3.org/1999/xlink" x="0px" y="0px"
	 width="23px" height="23px" viewBox="0 0 23 23" enable-background="new 0 0 23 23" xml:space="preserve">
<g id="Shape_4">
	<g>
		<path fill-rule="evenodd" clip-rule="evenodd" fill="#898989" d="M11.5-0.001C5.148-0.001,0,5.148,0,11.499
			c0,6.352,5.148,11.5,11.5,11.5c6.352,0,11.5-5.149,11.5-11.5C23,5.148,17.851-0.001,11.5-0.001z M11.5,21.539
			c-5.545,0-10.04-4.495-10.04-10.04c0-5.545,4.495-10.041,10.04-10.041c5.545,0,10.04,4.495,10.04,10.041
			C21.54,17.045,17.045,21.539,11.5,21.539z M12.219,4.357h-1.415l0.022,7.884l4.964,4.246l0.876-1.236l-4.447-3.729V4.357z"/>
	</g>
</g>
</svg>
